<?xml version="1.0" encoding="UTF-8"?>
<svg xmlns="http://www.w3.org/2000/svg" xmlns:xlink="http://www.w3.org/1999/xlink" width="1280px" height="100px" viewBox="0 0 1280 100" version="1.1">
<g id="surface1">
<path style=" stroke:none;fill-rule:evenodd;fill:rgb(100%,100%,100%);fill-opacity:1;" d="M -20 0 L 34.957031 5.554688 C 89.917969 11.109375 199.832031 22.222656 309.75 25.925781 C 419.667969 29.628906 529.582031 25.925781 639.5 33.332031 C 749.417969 40.742188 859.332031 59.257812 969.25 61.113281 C 1079.171875 62.964844 1189.078125 48.148438 1244.039062 40.742188 L 1299 33.332031 L 1299 100 L 1244.039062 100 C 1189.078125 100 1079.171875 100 969.25 100 C 859.332031 100 749.417969 100 639.5 100 C 529.582031 100 419.667969 100 309.75 100 C 199.832031 100 89.917969 100 34.957031 100 L -20 100 Z M -20 0 "/>
</g>
</svg>
