<svg width="1280" height="203" viewBox="0 0 1280 203" fill="none" xmlns="http://www.w3.org/2000/svg">
<path fill-rule="evenodd" clip-rule="evenodd" d="M-20 0L34.9583 11.2778C89.9167 22.5556 199.833 45.1111 309.75 52.6296C419.667 60.1481 529.583 52.6296 639.5 67.6667C749.417 82.7037 859.333 120.296 969.25 124.056C1079.17 127.815 1189.08 97.7407 1244.04 82.7037L1299 67.6667V203H1244.04C1189.08 203 1079.17 203 969.25 203C859.333 203 749.417 203 639.5 203C529.583 203 419.667 203 309.75 203C199.833 203 89.9167 203 34.9583 203H-20V0Z" fill="white"/>
</svg>
