<svg width="1280" height="249" viewBox="0 0 1280 249" fill="none" xmlns="http://www.w3.org/2000/svg">
<g filter="url(#filter0_d_3_9)">
<path fill-rule="evenodd" clip-rule="evenodd" d="M-20 17L34.9583 28.2778C89.9167 39.5556 199.833 62.1111 309.75 69.6296C419.667 77.1481 529.583 69.6296 639.5 84.6667C749.417 99.7037 859.333 137.296 969.25 141.056C1079.17 144.815 1189.08 114.741 1244.04 99.7037L1299 84.6667V220H1244.04C1189.08 220 1079.17 220 969.25 220C859.333 220 749.417 220 639.5 220C529.583 220 419.667 220 309.75 220C199.833 220 89.9167 220 34.9583 220H-20V17Z" fill="white"/>
</g>
<defs>
<filter id="filter0_d_3_9" x="-43" y="0" width="1365" height="249" filterUnits="userSpaceOnUse" color-interpolation-filters="sRGB">
<feFlood flood-opacity="0" result="BackgroundImageFix"/>
<feColorMatrix in="SourceAlpha" type="matrix" values="0 0 0 0 0 0 0 0 0 0 0 0 0 0 0 0 0 0 127 0" result="hardAlpha"/>
<feOffset dy="6"/>
<feGaussianBlur stdDeviation="11.5"/>
<feComposite in2="hardAlpha" operator="out"/>
<feColorMatrix type="matrix" values="0 0 0 0 0 0 0 0 0 0 0 0 0 0 0 0 0 0 0.25 0"/>
<feBlend mode="normal" in2="BackgroundImageFix" result="effect1_dropShadow_3_9"/>
<feBlend mode="normal" in="SourceGraphic" in2="effect1_dropShadow_3_9" result="shape"/>
</filter>
</defs>
</svg>
